# xmcd
#
# Track frame offsets:
#	150
#	13347
#	26032
#	38230
#	51569
#	64109
#	75633
#	88421
#	101110
#	113012
#	124596
#	135478
#	148553
#	160432
#	172888
#	183758
#	195148
#	207493
#	219181
#	230029
#	242319
#	253301
#	266486
#	277543
#	288663
#	300204
#	312443
#
# Disc length: 4296 seconds
#
# Revision: 1
# Processed by: cddbd v1.5.1PL0 Copyright (c) Steve Scherf et al.
# Submitted via: audiograbber 1.83.01
#
DISCID=7d10c61b
DTITLE=Hank Williams - The Original Singles Collection...Plus [Disc Two]
DYEAR=1990
DGENRE=Country
TTITLE0=Mind Your Own Business
TTITLE1=There'll Be No Teardrops Tonight
TTITLE2=Lost Highway
TTITLE3=You're Gonna Change (Or I'm Gonna Leave)
TTITLE4=I'm So Lonesome I Could Cry
TTITLE5=My Bucket's Got A Hole In It
TTITLE6=May You Never Be Alone
TTITLE7=I Just Don't Like This Kind of Living
TTITLE8=Long Gone Lonesome Blues
TTITLE9=My Son Calls Another Man Daddy
TTITLE10=Why Don't You Love Me
TTITLE11=A House Without Love
TTITLE12=Why Should We Try Anymore
TTITLE13=They'll Never Take Her Love From Me
TTITLE14=Moanin' The Blues
TTITLE15=Noboy's Lonesome For Me
TTITLE16=Cold, Cold Heart
TTITLE17=Dear John
TTITLE18=I Can't Help It (If I'm Still In Love With You)
TTITLE19=Howlin' At The Moon
TTITLE20=My Heart Would Know
TTITLE21=Hey, Good Lookin'
TTITLE22=(I Heard That) Lonesome Whistle
TTITLE23=Crazy Heart
TTITLE24=Baby, We're Really In Love
TTITLE25=I'm Sorry For You, My Friend
TTITLE26=Honky Tonk Blues
EXTD=
EXTT0=
EXTT1=
EXTT2=
EXTT3=
EXTT4=
EXTT5=
EXTT6=
EXTT7=
EXTT8=
EXTT9=
EXTT10=
EXTT11=
EXTT12=
EXTT13=
EXTT14=
EXTT15=
EXTT16=
EXTT17=
EXTT18=
EXTT19=
EXTT20=
EXTT21=
EXTT22=
EXTT23=
EXTT24=
EXTT25=
EXTT26=
PLAYORDER=
